<svg id="visual" viewBox="0 0 900 600" width="900" height="600" xmlns="http://www.w3.org/2000/svg" xmlns:xlink="http://www.w3.org/1999/xlink" version="1.1"><rect x="0" y="0" width="900" height="600" fill="#fff"></rect><defs><linearGradient id="grad1_0" x1="33.3%" y1="0%" x2="100%" y2="100%"><stop offset="20%" stop-color="#abc7e5" stop-opacity="1"></stop><stop offset="80%" stop-color="#abc7e5" stop-opacity="1"></stop></linearGradient></defs><defs><linearGradient id="grad1_1" x1="33.3%" y1="0%" x2="100%" y2="100%"><stop offset="20%" stop-color="#abc7e5" stop-opacity="1"></stop><stop offset="80%" stop-color="#ffffff" stop-opacity="1"></stop></linearGradient></defs><defs><linearGradient id="grad2_0" x1="0%" y1="0%" x2="66.7%" y2="100%"><stop offset="20%" stop-color="#abc7e5" stop-opacity="1"></stop><stop offset="80%" stop-color="#abc7e5" stop-opacity="1"></stop></linearGradient></defs><defs><linearGradient id="grad2_1" x1="0%" y1="0%" x2="66.7%" y2="100%"><stop offset="20%" stop-color="#ffffff" stop-opacity="1"></stop><stop offset="80%" stop-color="#abc7e5" stop-opacity="1"></stop></linearGradient></defs><g transform="translate(900, 0)"><path d="M0 243.4C-24.1 247.8 -48.2 252.2 -63 235.1C-77.8 217.9 -83.4 179.2 -91.5 158.5C-99.6 137.8 -110.2 135.2 -133.6 133.6C-157.1 132 -193.5 131.4 -202.6 117C-211.8 102.6 -193.8 74.3 -196.1 52.5C-198.3 30.7 -220.9 15.4 -243.4 0L0 0Z" fill="#d5e3f2"></path><path d="M0 121.7C-12 123.9 -24.1 126.1 -31.5 117.5C-38.9 109 -41.7 89.6 -45.7 79.2C-49.8 68.9 -55.1 67.6 -66.8 66.8C-78.6 66 -96.7 65.7 -101.3 58.5C-105.9 51.3 -96.9 37.2 -98 26.3C-99.2 15.4 -110.4 7.7 -121.7 0L0 0Z" fill="#abc7e5"></path></g><g transform="translate(0, 600)"><path d="M0 -243.4C23.8 -246.4 47.6 -249.4 63 -235.1C78.4 -220.8 85.3 -189.2 101.5 -175.8C117.7 -162.4 143.1 -167.3 157 -157C170.9 -146.7 173.3 -121.3 175.8 -101.5C178.3 -81.7 180.9 -67.5 192.2 -51.5C203.5 -35.5 223.4 -17.8 243.4 0L0 0Z" fill="#d5e3f2"></path><path d="M0 -121.7C11.9 -123.2 23.8 -124.7 31.5 -117.5C39.2 -110.4 42.7 -94.6 50.7 -87.9C58.8 -81.2 71.5 -83.6 78.5 -78.5C85.4 -73.3 86.6 -60.7 87.9 -50.8C89.2 -40.8 90.5 -33.7 96.1 -25.8C101.7 -17.8 111.7 -8.9 121.7 0L0 0Z" fill="#abc7e5"></path></g></svg>